<?xml version="1.0" standalone="no"?>
<!DOCTYPE svg PUBLIC "-//W3C//DTD SVG 20010904//EN"
 "http://www.w3.org/TR/2001/REC-SVG-20010904/DTD/svg10.dtd">
<svg version="1.0" xmlns="http://www.w3.org/2000/svg"
 width="1120.000000pt" height="1280.000000pt" viewBox="0 0 1120.000000 1280.000000"
 preserveAspectRatio="xMidYMid meet">
<g transform="translate(0.000000,1280.000000) scale(0.100000,-0.100000)"
fill="#000000" stroke="none">
<path d="M5505 12764 c-75 -31 -170 -53 -400 -94 -99 -18 -186 -35 -194 -39
-15 -9 131 -20 344 -27 77 -2 173 -11 213 -20 53 -11 77 -13 86 -5 10 8 20 6
38 -8 40 -32 73 -36 96 -11 l20 21 25 -32 c19 -25 35 -33 76 -40 29 -4 62 -4
74 0 14 5 41 2 76 -10 30 -11 62 -19 71 -19 9 0 36 -13 58 -30 29 -21 74 -38
144 -54 121 -29 296 -82 423 -126 83 -30 103 -33 280 -41 393 -17 383 -8 -50
51 -171 23 -333 46 -360 51 -56 10 -75 24 -343 242 l-170 137 -95 -20 -96 -21
-120 61 c-66 33 -124 60 -128 59 -5 0 -35 -12 -68 -25z m695 -324 c0 -5 -7
-10 -16 -10 -8 0 -12 5 -9 10 3 6 10 10 16 10 5 0 9 -4 9 -10z"/>
<path d="M4107 12484 c-125 -24 -133 -27 -400 -158 -149 -73 -312 -150 -362
-171 -49 -21 -99 -49 -110 -62 -13 -14 -24 -20 -30 -14 -9 9 -134 -37 -173
-62 -15 -10 -57 -146 -48 -155 4 -3 17 6 29 20 12 14 36 33 52 42 l30 15 -37
1 c-69 0 -30 49 40 50 15 1 38 7 52 15 14 8 36 14 50 15 14 0 36 7 48 16 26
18 42 11 42 -17 0 -11 6 -22 14 -25 14 -5 60 18 81 40 31 33 96 75 108 70 23
-8 143 35 195 71 26 18 67 42 90 54 23 12 43 27 43 34 1 6 2 35 3 62 1 48 2
50 31 51 17 1 47 9 68 18 21 9 61 21 90 27 29 5 78 18 110 29 31 11 65 20 75
20 10 0 36 9 58 20 l39 19 -30 0 c-16 0 -87 -12 -158 -25z"/>
<path d="M7845 12028 c70 -59 226 -221 235 -244 5 -13 29 -37 52 -54 49 -36
67 -63 68 -103 0 -36 15 -65 51 -99 20 -18 29 -37 29 -57 0 -18 9 -40 21 -52
19 -19 21 -19 33 -4 24 34 80 -16 91 -81 6 -38 4 -43 -26 -69 -26 -21 -37 -43
-51 -94 -9 -36 -17 -69 -17 -73 -1 -12 37 -9 59 4 16 10 23 9 40 -7 27 -25 24
-69 -6 -73 -16 -2 -20 -8 -17 -21 8 -32 -18 -37 -42 -8 -26 33 -35 34 -35 2 0
-27 -9 -37 -57 -65 -31 -18 -44 -40 -25 -40 5 0 28 -14 52 -31 54 -39 43 -58
-24 -42 -25 5 -51 6 -58 2 -14 -9 -8 -28 46 -154 14 -33 26 -78 26 -100 0 -22
7 -53 15 -69 8 -15 15 -37 15 -47 0 -10 9 -33 20 -52 18 -31 20 -42 11 -116
-10 -91 -21 -111 -62 -111 -21 0 -32 7 -44 30 -8 16 -24 34 -34 40 -11 5 -29
26 -41 45 -27 44 -38 44 -42 3 -2 -25 -8 -33 -23 -33 -22 0 -24 18 -13 88 8
42 -6 48 -47 21 -25 -16 -25 -16 -36 15 -10 29 -29 43 -29 21 0 -5 -9 -10 -20
-10 -26 0 -25 -3 8 -53 37 -54 56 -103 48 -122 -8 -22 -18 -19 -66 22 -38 33
-43 35 -38 15 5 -16 1 -26 -13 -35 -26 -16 -25 -24 16 -108 19 -41 35 -81 35
-91 0 -33 -19 -19 -45 32 -49 96 -56 60 -25 -120 11 -63 20 -145 20 -182 0
-39 7 -85 16 -108 14 -33 14 -43 3 -56 -7 -9 -14 -36 -14 -60 -2 -50 -7 -59
-30 -51 -10 4 -15 20 -15 44 l-1 38 -15 -28 c-8 -16 -21 -27 -27 -25 -7 2 -35
49 -62 105 -28 55 -59 111 -70 123 -19 21 -73 50 -94 50 -17 0 -21 -30 -9 -80
8 -36 16 -50 28 -50 23 0 44 -26 36 -45 -5 -13 -10 -14 -27 -5 -11 7 -22 10
-24 8 -5 -6 25 -243 44 -343 11 -55 27 -192 36 -305 14 -187 26 -282 43 -350
3 -14 7 -41 8 -60 1 -19 12 -69 23 -110 12 -41 25 -120 29 -175 6 -90 9 -100
27 -103 23 -3 27 13 25 126 -1 82 9 91 52 45 26 -29 58 -118 50 -142 -2 -7
-21 -21 -42 -30 -35 -15 -37 -18 -24 -36 19 -25 41 -12 67 39 16 30 24 36 41
31 12 -3 37 -9 57 -12 33 -5 39 -2 63 29 14 19 26 46 26 60 0 14 7 31 14 38
13 10 13 16 -2 46 -15 33 -15 35 6 57 37 36 107 31 165 -13 58 -44 59 -63 7
-126 -22 -27 -40 -52 -40 -56 0 -4 16 -23 35 -43 25 -24 45 -35 65 -35 34 0
50 -23 50 -69 0 -32 30 -71 54 -71 7 0 19 -7 26 -15 25 -30 20 -38 161 315 85
213 87 186 -42 705 -66 269 -101 368 -161 467 -28 46 -57 100 -64 122 -18 50
-18 168 1 248 27 120 33 191 24 323 -4 72 -13 253 -20 403 l-11 273 57 87 c55
81 104 204 105 258 0 67 -176 346 -348 552 -42 50 -247 220 -352 293 l-45 31
40 -34z m249 -1845 c-5 -14 -15 -28 -21 -31 -16 -5 -17 32 -2 60 16 30 36 7
23 -29z m-194 -793 c0 -5 -4 -10 -10 -10 -5 0 -10 5 -10 10 0 6 5 10 10 10 6
0 10 -4 10 -10z m-58 -425 c14 -39 17 -77 15 -177 -2 -115 -4 -130 -23 -149
-28 -28 -44 -17 -44 30 0 22 -6 44 -15 51 -11 9 -15 34 -15 100 0 69 -3 89
-15 94 -10 4 -15 20 -15 51 0 45 7 54 26 35 8 -8 15 -6 24 5 22 27 44 13 62
-40z m724 -41 c8 -29 -7 -49 -30 -41 -16 6 -22 48 -9 60 14 15 33 6 39 -19z
m48 -140 c3 -9 6 -25 6 -37 0 -12 7 -31 15 -41 8 -11 15 -28 15 -37 0 -10 12
-31 26 -48 30 -36 28 -65 -4 -69 -29 -4 -59 21 -67 58 -3 15 -21 42 -40 60
-39 38 -46 81 -18 112 20 22 59 24 67 2z m-609 -125 c4 -6 -2 -21 -14 -33 -12
-12 -21 -34 -21 -49 0 -40 -25 -33 -54 15 -30 50 -23 65 32 71 20 2 40 4 44 5
4 1 10 -3 13 -9z m-117 -62 c-2 -11 -9 -22 -15 -25 -16 -4 -27 22 -19 43 8 22
38 6 34 -18z m515 -340 c7 -21 5 -34 -7 -52 -21 -32 -40 -32 -54 0 -18 39 -15
61 11 73 30 14 39 11 50 -21z m105 -199 c-4 -27 -23 -34 -32 -13 -8 21 1 35
20 35 10 0 14 -8 12 -22z"/>
<path d="M3177 11962 c-20 -22 -22 -62 -4 -62 11 0 37 51 37 73 0 13 -17 7
-33 -11z"/>
<path d="M2962 11778 c-14 -14 -16 -58 -2 -58 14 0 43 48 35 60 -8 13 -18 13
-33 -2z"/>
<path d="M2919 11605 c-11 -25 -17 -50 -13 -56 6 -11 109 -7 120 4 11 11 -22
59 -53 77 l-34 20 -20 -45z"/>
<path d="M3695 11521 c-108 -39 -186 -83 -196 -108 -5 -14 -26 -44 -47 -68
-52 -59 -409 -566 -421 -597 -6 -15 -32 -52 -58 -82 -104 -121 -102 -117 -85
-153 14 -30 14 -34 -3 -53 -14 -15 -15 -23 -6 -33 12 -16 2 -28 -31 -40 -10
-4 -18 -12 -18 -18 0 -8 15 -10 45 -6 33 3 50 0 61 -10 18 -19 10 -32 -32 -49
-46 -19 -43 -34 7 -34 32 0 46 6 69 31 31 35 60 34 60 -1 0 -18 6 -20 69 -20
62 0 69 2 74 21 3 12 -1 32 -10 45 -14 22 -14 24 1 30 11 4 26 -2 41 -16 l24
-23 7 29 c4 16 15 39 24 51 10 13 23 53 30 90 14 80 26 115 56 163 25 41 38
119 24 154 -7 20 -4 32 15 61 14 19 32 49 40 65 9 17 22 30 31 30 8 0 20 13
25 29 12 33 48 61 78 61 11 0 23 5 26 10 3 6 15 10 26 10 15 0 18 5 13 24 -8
33 9 60 51 80 19 9 35 23 35 31 0 8 22 22 50 32 45 16 66 33 40 33 -5 0 -10 8
-10 18 0 30 39 85 102 143 l60 56 -83 16 c-104 21 -122 21 -184 -2z m-505
-901 c0 -11 -4 -20 -9 -20 -14 0 -23 18 -16 30 10 17 25 11 25 -10z m-65 -280
c0 -18 -53 -26 -69 -10 -8 8 -7 13 4 21 22 14 65 7 65 -11z"/>
<path d="M6516 11413 c4 -16 11 -37 17 -47 9 -18 10 -18 19 -2 7 12 3 25 -12
46 -26 37 -32 38 -24 3z"/>
<path d="M6588 11414 c13 -25 42 -50 42 -37 0 5 -12 20 -26 34 -24 21 -26 22
-16 3z"/>
<path d="M2911 11389 c-45 -24 -54 -41 -43 -81 12 -48 47 -50 66 -4 8 19 24
41 35 48 26 16 27 34 2 48 -11 5 -21 9 -23 9 -2 -1 -18 -10 -37 -20z"/>
<path d="M6554 11286 c12 -18 16 -38 12 -57 -3 -17 -1 -29 5 -29 6 0 31 -14
55 -32 44 -32 62 -33 50 -2 -3 9 -13 14 -21 11 -9 -4 -21 8 -36 38 -12 24 -36
57 -53 72 l-30 28 18 -29z"/>
<path d="M2816 11228 c-4 -13 -38 -147 -77 -298 -39 -151 -76 -284 -81 -294
-8 -15 -6 -21 6 -28 14 -8 15 -13 5 -24 -6 -8 -19 -12 -28 -9 -12 4 -48 -53
-153 -244 -76 -137 -138 -254 -138 -261 0 -8 8 -10 23 -5 12 4 38 10 57 14 31
6 35 10 32 34 -2 19 9 47 33 85 20 31 58 91 84 132 26 41 74 103 106 138 54
58 56 64 40 76 -11 8 -16 20 -12 29 4 10 -1 21 -11 27 -15 9 -15 12 8 31 14
12 60 39 102 60 48 24 87 52 105 75 15 20 47 59 70 87 23 29 40 54 37 56 -2 3
-44 -35 -93 -82 -117 -115 -130 -115 -89 1 23 63 23 64 4 78 -11 8 -32 14 -48
14 -40 0 -36 26 6 47 31 14 34 19 29 48 -7 42 20 99 63 132 19 14 34 30 34 35
0 5 -15 15 -33 23 -19 8 -39 21 -47 29 -17 22 -27 20 -34 -6z"/>
<path d="M6737 11238 c-6 -21 4 -48 19 -48 18 0 26 17 19 40 -7 22 -31 27 -38
8z"/>
<path d="M6917 11163 c-12 -11 -7 -21 13 -26 11 -3 20 -2 20 3 0 12 -26 31
-33 23z"/>
<path d="M6975 11070 c9 -31 25 -50 25 -29 0 7 -8 23 -16 34 -16 19 -16 19 -9
-5z"/>
<path d="M6836 11057 c-18 -13 -17 -15 13 -36 17 -12 31 -28 31 -35 0 -7 12
-30 26 -51 15 -23 24 -48 21 -60 -2 -16 1 -22 12 -21 12 1 16 -8 15 -36 -1
-41 3 -46 20 -23 10 14 18 11 61 -20 50 -35 79 -43 90 -25 3 6 13 10 21 10 13
0 14 -8 9 -38 -7 -44 17 -75 51 -66 18 5 21 13 19 50 -2 57 -40 103 -72 85
-25 -13 -33 -6 -34 28 0 14 -3 20 -6 14 -2 -7 -11 -13 -19 -13 -20 0 -18 49 2
72 20 21 8 40 -38 64 -25 13 -29 13 -34 0 -3 -8 0 -24 6 -35 9 -17 8 -22 -6
-28 -12 -5 -26 4 -46 27 -15 19 -28 40 -28 47 0 7 -9 17 -21 23 -30 17 -59 48
-59 65 0 19 -11 19 -34 2z"/>
<path d="M7000 10711 c0 -5 5 -13 10 -16 6 -3 10 -2 10 4 0 5 -4 13 -10 16 -5
3 -10 2 -10 -4z"/>
<path d="M6297 10569 c-9 -6 -21 -7 -27 -4 -5 3 -27 -3 -50 -15 -33 -17 -43
-18 -60 -8 -16 10 -24 9 -51 -11 -27 -20 -37 -22 -59 -14 -22 8 -34 6 -65 -13
-21 -12 -44 -36 -51 -53 -13 -30 -34 -44 -84 -55 -14 -3 -48 -20 -75 -38 -43
-29 -58 -33 -117 -34 -37 0 -71 -3 -74 -7 -4 -4 -16 -7 -26 -7 -13 0 -18 -7
-18 -25 0 -32 -24 -42 -63 -27 -20 8 -34 8 -42 2 -7 -6 -21 -7 -31 -4 -11 4
-3 -4 16 -17 51 -36 99 -130 100 -196 0 -40 4 -55 18 -62 14 -7 22 -30 30 -80
13 -79 41 -148 68 -173 18 -16 24 -15 99 16 155 64 197 89 240 144 47 62 170
156 223 172 148 45 370 -1 487 -100 40 -34 40 -33 -5 14 -25 26 -61 56 -81 66
-88 46 -360 69 -479 41 -32 -8 -63 -22 -77 -37 -35 -37 -103 -29 -103 14 0 7
13 32 29 55 24 35 52 54 160 110 120 62 135 67 193 67 79 0 105 7 111 29 5 20
61 31 163 31 62 0 64 1 52 20 -7 11 -29 23 -48 26 -19 3 -47 14 -62 25 -15 10
-43 19 -61 19 -39 0 -87 32 -87 58 0 14 -8 16 -50 14 -52 -4 -62 5 -34 32 20
21 15 38 -9 25z m-379 -596 c-4 -19 -30 -28 -55 -19 -23 9 3 36 34 36 18 0 24
-5 21 -17z"/>
<path d="M8040 10429 c0 -5 5 -7 10 -4 6 3 10 8 10 11 0 2 -4 4 -10 4 -5 0
-10 -5 -10 -11z"/>
<path d="M4085 10330 c17 -18 17 -20 0 -26 -9 -4 -58 -4 -107 -1 l-91 6 34
-29 c33 -29 33 -30 15 -45 -11 -8 -28 -15 -39 -15 -21 0 -177 -91 -197 -115
-7 -8 -20 -15 -29 -15 -13 0 -13 -2 -2 -9 8 -5 11 -16 8 -25 -7 -18 -23 -21
-31 -7 -3 5 -19 -3 -35 -18 -27 -24 -28 -26 -9 -33 28 -11 11 -35 -54 -79 -50
-33 -53 -38 -50 -72 2 -26 -4 -47 -23 -74 -31 -46 -32 -70 -4 -100 l22 -22
-26 -10 c-37 -14 -42 -30 -18 -53 17 -15 21 -29 19 -61 l-3 -42 -57 3 c-57 3
-58 3 -58 -23 0 -26 39 -75 70 -88 13 -5 12 -8 -3 -20 -10 -9 -15 -21 -11 -31
4 -10 -6 -30 -30 -56 -20 -22 -36 -41 -36 -43 0 -2 30 12 68 30 43 21 94 37
142 43 111 16 109 30 -3 23 -84 -5 -97 -4 -103 11 -13 34 14 46 105 46 l87 0
57 69 c89 108 110 116 412 146 138 14 315 28 395 31 140 6 146 8 166 32 21 25
22 26 90 15 55 -9 73 -8 91 3 27 17 43 89 43 198 0 50 6 97 14 118 13 30 13
38 -1 66 -14 29 -14 38 0 94 9 34 14 64 13 66 -2 1 -15 -3 -30 -9 -20 -9 -45
-9 -108 -1 -46 7 -106 12 -134 12 -79 0 -110 9 -152 46 -29 25 -42 30 -50 22
-9 -9 -21 -8 -47 5 -20 9 -58 17 -86 17 -27 0 -65 7 -84 15 -35 14 -35 14 -29
-10 5 -19 2 -25 -9 -25 -9 0 -19 5 -22 10 -7 11 -79 50 -91 50 -4 0 1 -9 11
-20z m145 -280 c89 -15 161 -51 195 -100 15 -21 24 -43 21 -48 -4 -6 -27 -2
-58 11 -42 16 -77 21 -168 21 -114 1 -116 0 -220 -42 -58 -24 -112 -49 -120
-56 -8 -7 -46 -30 -85 -51 -38 -21 -84 -51 -102 -66 -36 -31 -90 -46 -106 -30
-8 8 -8 19 -1 38 7 18 7 39 0 60 -11 38 1 58 42 67 15 3 40 23 57 45 32 42 91
74 170 92 28 7 58 19 67 27 44 37 182 52 308 32z m47 -151 c38 -7 75 -20 91
-33 15 -13 41 -31 59 -41 31 -18 49 -42 39 -53 -3 -2 -33 1 -68 7 -35 6 -110
13 -168 17 -94 6 -110 4 -145 -13 -22 -11 -52 -23 -66 -27 -15 -3 -46 -22 -69
-41 -23 -19 -52 -35 -65 -35 -13 0 -27 -4 -30 -10 -3 -5 -17 -10 -31 -10 -41
0 -29 35 35 99 63 63 156 115 244 137 67 16 96 16 174 3z m-739 -227 c2 -7 -6
-12 -17 -12 -21 0 -27 11 -14 24 9 9 26 2 31 -12z m42 -100 c0 -13 -12 -22
-22 -16 -10 6 -1 24 13 24 5 0 9 -4 9 -8z"/>
<path d="M6778 10248 c-25 -9 -39 -28 -20 -28 12 0 81 26 88 33 11 10 -37 7
-68 -5z"/>
<path d="M6901 10109 c-28 -26 -40 -30 -68 -26 -29 5 -32 4 -24 -11 6 -10 34
-21 76 -29 75 -14 119 -37 111 -58 -3 -8 -1 -17 4 -20 14 -9 12 -43 -2 -47 -8
-3 -2 -14 17 -31 36 -31 42 -20 21 34 -9 21 -16 55 -16 73 0 25 -7 38 -25 50
-14 9 -29 33 -35 56 -6 22 -14 40 -18 40 -4 0 -22 -14 -41 -31z"/>
<path d="M6668 10114 c10 -19 37 -45 60 -58 8 -5 12 0 12 16 0 17 -9 27 -32
38 -18 7 -37 15 -41 18 -5 2 -4 -4 1 -14z"/>
<path d="M3231 10103 c-7 -8 -22 -12 -35 -9 -34 8 -50 -7 -36 -34 10 -18 8
-28 -15 -62 -15 -22 -24 -42 -22 -45 3 -2 28 13 55 34 34 26 49 43 46 55 -3 9
2 21 11 26 10 5 15 18 13 29 -3 18 -5 19 -17 6z"/>
<path d="M2320 9995 c0 -21 14 -175 31 -344 33 -320 41 -555 27 -781 -7 -106
-7 -113 7 -87 10 18 24 27 40 27 13 0 26 4 29 9 3 4 28 11 56 15 54 7 107 -12
144 -53 26 -29 15 -59 -46 -126 -44 -49 -56 -56 -81 -52 -38 5 -48 -19 -18
-43 30 -22 25 -60 -12 -80 -27 -14 -29 -14 -48 9 -10 13 -19 32 -19 43 0 10
-9 39 -20 64 -11 24 -26 56 -33 71 -11 26 -12 21 -15 -51 l-3 -78 227 -582
c125 -319 247 -628 271 -685 39 -94 158 -290 187 -309 6 -4 58 -9 115 -12
l104 -5 139 -325 c230 -539 397 -944 404 -975 7 -37 -42 -180 -97 -283 -21
-40 -35 -71 -30 -68 21 13 98 124 140 202 25 48 51 88 56 88 6 1 18 -30 27
-68 13 -55 24 -77 52 -103 19 -19 41 -52 47 -73 7 -22 18 -45 26 -51 7 -6 13
-17 13 -25 0 -7 5 -25 12 -39 9 -20 17 -25 33 -21 15 4 28 -1 40 -14 10 -11
24 -20 32 -20 8 0 13 -11 13 -29 0 -31 22 -57 40 -46 5 3 10 16 10 29 0 12 7
31 15 42 19 26 19 31 -6 37 -12 3 -19 12 -17 19 7 19 47 22 54 4 3 -8 12 -12
21 -9 8 3 38 -6 67 -20 28 -14 78 -38 111 -53 33 -15 67 -33 75 -39 8 -7 31
-18 50 -24 19 -6 59 -30 87 -54 44 -34 53 -48 53 -73 0 -17 -7 -38 -16 -45
-14 -11 -19 -10 -35 9 -17 22 -20 22 -42 7 -13 -8 -35 -14 -48 -13 -16 2 -24
-3 -27 -15 -3 -16 -1 -17 17 -8 26 14 101 3 108 -15 3 -8 19 -14 37 -14 36 0
56 -15 56 -42 0 -19 -15 -24 -25 -8 -3 6 -14 10 -23 10 -30 -1 30 -29 63 -30
78 -1 168 -56 180 -112 7 -30 -8 -53 -27 -42 -4 3 -8 1 -8 -5 0 -5 5 -13 10
-16 23 -14 41 -66 34 -100 -5 -28 -11 -35 -30 -35 -24 0 -32 -14 -14 -25 6 -3
10 -19 10 -34 0 -33 20 -53 80 -80 54 -24 89 -26 116 -6 24 18 54 19 54 2 0
-8 -24 -45 -54 -83 -29 -38 -79 -107 -111 -154 l-57 -85 43 -38 c23 -20 69
-55 103 -76 99 -64 108 -74 104 -129 l-3 -47 -75 2 c-41 1 -113 11 -160 22
-47 12 -103 21 -126 21 -39 0 -43 -3 -81 -58 -62 -89 -93 -148 -92 -174 l0
-23 12 23 c7 16 17 22 30 18 10 -2 34 5 54 16 29 18 59 22 186 28 149 7 189
16 240 52 15 11 27 8 81 -20 35 -18 71 -41 81 -52 15 -17 15 -20 -1 -52 -29
-57 -75 -121 -124 -173 -97 -103 -215 -343 -279 -566 -100 -350 -149 -743
-221 -1764 -62 -890 -69 -999 -61 -1013 7 -13 10 -12 15 4 6 22 30 322 46 579
24 400 31 498 50 675 11 102 31 298 45 436 24 243 57 458 76 499 5 11 13 44
19 73 5 29 14 61 20 72 5 10 10 37 10 60 0 36 2 41 19 35 15 -4 20 0 23 17 2
16 11 24 27 26 14 2 35 11 48 19 18 12 27 13 35 5 9 -9 17 -7 31 6 17 15 20
16 31 0 11 -14 18 -9 61 42 78 96 113 177 210 488 19 64 53 120 77 127 26 9
68 63 97 125 22 49 26 72 31 205 4 124 8 150 20 150 8 0 23 -18 33 -40 37 -78
67 -92 67 -32 0 39 20 81 40 85 9 1 23 -3 33 -11 18 -12 18 -17 -1 -111 -11
-54 -27 -105 -35 -114 -14 -14 -18 -13 -42 2 -20 13 -26 14 -30 4 -19 -52
-125 -405 -125 -418 -1 -8 -9 -33 -20 -55 -11 -22 -20 -47 -20 -55 0 -8 -14
-60 -31 -115 -34 -114 -48 -253 -30 -308 7 -19 14 -61 17 -93 3 -32 10 -65 16
-72 8 -9 8 -16 0 -24 -17 -17 -15 -46 4 -56 12 -6 15 -17 11 -32 -3 -12 3 -44
13 -70 16 -42 17 -50 5 -66 -21 -28 -19 -65 4 -71 19 -5 35 -39 25 -55 -3 -4
-12 -8 -20 -8 -9 0 -14 -11 -14 -36 0 -19 -5 -44 -10 -55 -8 -13 -7 -25 0 -39
8 -15 7 -27 -5 -49 -14 -27 -13 -33 5 -73 11 -24 25 -51 32 -60 10 -14 10 -20
-4 -30 -9 -7 -18 -26 -21 -43 -2 -16 -8 -39 -12 -50 -6 -14 -1 -12 14 7 31 38
45 36 38 -6 -5 -30 -3 -35 16 -38 31 -4 34 -42 5 -62 -18 -13 -19 -16 -6 -16
9 0 21 -7 26 -16 6 -11 11 -13 16 -5 11 17 26 13 26 -7 0 -26 -11 -34 -27 -20
-11 9 -17 9 -23 -3 -7 -11 -3 -15 20 -17 30 -3 53 -30 48 -55 -3 -17 25 -107
33 -107 4 0 9 10 11 22 2 17 11 23 33 25 37 3 55 -18 55 -65 0 -33 1 -34 18
-19 28 26 45 22 38 -8 -6 -23 -5 -24 13 -13 29 18 38 1 18 -34 -15 -27 -16
-30 -1 -24 11 4 18 0 21 -14 6 -24 22 -26 38 -3 15 20 35 9 35 -19 0 -22 30
-78 42 -78 4 0 8 15 8 33 0 41 21 73 44 64 9 -4 27 -31 41 -62 28 -60 40 -71
30 -26 -4 17 -2 32 5 36 8 5 7 12 -3 23 -27 31 -30 59 -7 65 12 3 20 13 20 27
0 11 8 35 17 53 10 18 18 60 19 97 2 36 3 68 3 72 1 4 10 10 22 13 15 5 19 13
16 27 -3 11 -2 29 4 39 5 11 13 27 17 36 10 21 8 160 -3 185 -4 9 -4 21 -1 27
4 5 2 12 -4 16 -20 12 -11 44 15 51 29 7 32 20 9 45 -15 16 -15 22 2 66 9 26
22 54 27 60 6 9 2 25 -13 50 -20 33 -20 38 -6 49 12 8 16 27 15 70 -1 33 -1
92 0 132 2 69 -2 90 -36 189 -20 59 -80 148 -147 218 -90 94 -154 245 -201
472 -22 107 -22 192 2 298 l20 90 69 3 c96 4 122 33 94 106 -5 14 -7 33 -3 42
9 24 145 10 253 -26 172 -58 201 -63 277 -51 72 11 169 5 191 -12 22 -17 26 2
8 41 -30 62 -124 199 -157 227 l-32 26 -11 -23 c-16 -32 -78 -46 -203 -47
-113 -1 -156 9 -151 36 2 10 46 52 99 93 159 125 151 117 144 140 -9 28 -135
194 -224 295 -39 44 -74 91 -77 105 -4 14 -11 31 -17 37 -13 17 12 54 60 90
21 15 69 54 106 85 68 56 247 188 446 328 121 85 374 327 423 403 17 29 46 69
64 90 18 21 61 96 98 166 113 220 125 217 176 -54 26 -135 95 -423 155 -650
55 -206 119 -490 136 -602 7 -46 15 -83 19 -83 4 0 15 9 25 20 43 48 52 4 75
-344 31 -487 63 -756 100 -838 22 -50 20 -30 110 -1028 80 -888 120 -1440 127
-1757 l6 -263 388 0 389 0 0 24 c0 14 7 31 14 39 18 18 136 41 173 34 16 -3
41 2 58 10 21 11 61 16 135 17 99 1 109 -1 174 -31 63 -31 76 -33 171 -33 63
0 120 -6 151 -15 123 -38 225 -45 707 -45 l468 0 -4 147 c-2 82 -11 810 -20
1618 -10 809 -19 1488 -22 1511 -5 34 -11 43 -38 55 -42 19 -88 13 -94 -12 -7
-25 -22 -24 -32 3 l-8 22 -5 -22 c-8 -31 -26 -27 -34 6 -3 15 -7 32 -9 38 -2
5 -21 16 -43 22 -22 7 -45 19 -52 27 -7 8 -23 12 -38 10 -111 -17 -114 -17
-107 6 6 19 5 20 -27 13 -18 -4 -40 -7 -48 -5 -8 1 -37 3 -65 5 -27 2 -51 9
-53 15 -6 18 -83 12 -139 -11 -57 -23 -49 -25 -119 27 -10 7 -20 6 -34 -3 -26
-16 -49 -15 -56 2 -3 8 -15 14 -27 14 -46 -1 -142 25 -166 44 -22 16 -34 18
-83 13 -55 -7 -58 -6 -70 20 -9 20 -18 25 -37 23 -22 -3 -25 -7 -23 -30 2 -16
-1 -28 -7 -28 -26 0 -5 -29 96 -132 101 -103 106 -111 88 -124 -16 -12 -22
-12 -39 1 -12 8 -31 20 -42 26 -12 6 -27 22 -33 35 -9 21 -14 23 -30 14 -31
-16 -41 -12 -41 16 0 26 -1 27 -52 21 -49 -6 -55 -5 -85 25 -36 35 -40 50 -19
67 20 17 -2 60 -34 67 -14 3 -38 11 -55 19 -16 7 -40 17 -53 20 -13 4 -27 18
-32 31 -8 19 -17 24 -45 24 -22 0 -38 6 -41 15 -4 9 -19 15 -41 15 -57 0 -131
32 -181 78 -45 40 -84 53 -97 32 -22 -36 -81 40 -70 90 6 26 0 39 -35 85 -65
84 -107 125 -129 125 -26 0 -36 17 -20 36 16 19 -14 54 -48 54 -13 0 -44 17
-69 37 -34 29 -46 47 -51 75 -6 41 -24 49 -49 23 -22 -21 -44 -19 -44 5 0 11
-7 23 -15 26 -8 4 -15 12 -15 19 0 7 -16 16 -36 20 -20 3 -48 18 -62 32 -14
14 -41 30 -59 35 -22 6 -37 18 -44 34 -5 14 -33 51 -62 82 -65 70 -137 165
-137 180 0 31 75 2 180 -68 68 -45 170 -103 170 -96 0 2 -108 84 -239 182
l-239 177 -105 216 c-58 119 -115 241 -127 272 -30 83 -100 359 -94 374 7 17
13 19 154 64 l115 37 93 189 93 188 55 546 55 545 56 74 c30 41 77 111 104
155 57 93 169 310 169 326 0 17 -30 13 -37 -5 -3 -9 -15 -14 -31 -12 -25 3
-27 -1 -53 -102 -45 -174 -94 -260 -149 -260 -15 0 -70 -14 -121 -31 -81 -26
-106 -30 -175 -27 -141 5 -149 26 -139 340 8 218 8 218 -14 218 -18 0 -21 -6
-21 -45 0 -24 -6 -59 -14 -77 -29 -69 -46 -166 -40 -222 6 -48 4 -56 -14 -67
-15 -9 -18 -18 -12 -29 5 -9 5 -22 -1 -31 -5 -7 -9 -24 -9 -37 0 -29 -39 -122
-51 -122 -5 0 -14 9 -21 19 -11 18 -13 17 -29 -13 -10 -17 -22 -41 -28 -53
-13 -28 -31 -30 -31 -3 0 10 -5 42 -11 70 -11 53 -29 68 -29 25 0 -14 -9 -43
-20 -65 -11 -22 -20 -48 -20 -59 0 -30 -19 -36 -41 -12 -21 22 -59 29 -59 10
0 -22 -67 -93 -105 -110 -34 -15 -37 -19 -20 -25 11 -4 23 -13 27 -20 5 -7 17
-10 28 -7 14 4 20 0 20 -10 0 -22 -20 -32 -31 -16 -6 10 -11 6 -18 -14 -6 -15
-22 -32 -36 -39 -14 -6 -25 -15 -25 -20 0 -4 -7 -8 -16 -8 -12 0 -15 6 -10 20
3 11 9 30 13 41 4 16 2 20 -8 17 -7 -2 -17 -19 -21 -37 -6 -20 -18 -35 -33
-41 -31 -12 -31 -18 0 -60 31 -42 33 -70 5 -70 -17 0 -19 -3 -10 -19 17 -32
12 -48 -20 -61 -39 -16 -60 -51 -60 -99 0 -46 -44 -101 -82 -101 -21 -1 -21
-2 -5 -11 15 -9 16 -13 6 -26 -12 -14 -53 -12 -93 3 -8 3 -16 -4 -19 -15 -6
-23 -31 -28 -43 -9 -4 6 1 17 11 24 14 10 15 17 7 27 -14 17 -4 83 14 98 37
31 3 38 -63 13 -29 -11 -43 -23 -45 -38 -3 -19 -9 -21 -63 -21 -52 0 -60 3
-63 20 -7 36 -23 45 -78 45 -47 0 -55 -3 -75 -31 -32 -45 -65 -79 -77 -79 -29
0 -112 -46 -152 -85 -37 -36 -56 -46 -110 -58 -90 -19 -117 -19 -145 -1 -26
17 -33 48 -13 60 15 10 -19 34 -46 33 -12 0 -15 -3 -8 -6 16 -6 15 -38 -2 -52
-11 -10 -24 -9 -58 0 -24 7 -46 17 -49 22 -3 5 -9 2 -12 -7 -4 -10 -19 -16
-39 -16 -18 0 -58 -7 -88 -15 -73 -19 -86 -19 -108 5 -28 31 -69 10 -82 -42
-6 -21 -17 -38 -25 -38 -20 0 -45 28 -39 44 3 9 -3 11 -26 8 -18 -2 -30 -10
-30 -19 0 -11 -9 -7 -31 11 -17 14 -35 26 -40 26 -5 0 -20 18 -35 41 -14 22
-28 38 -31 35 -3 -3 2 -17 11 -30 22 -34 20 -73 -3 -86 -11 -5 -21 -20 -23
-32 -4 -32 -30 -33 -73 -4 -20 14 -53 28 -74 32 -20 3 -42 14 -49 23 -12 15
-14 15 -23 -2 -6 -9 -24 -24 -40 -33 -30 -15 -33 -14 -112 24 -138 67 -170 80
-215 87 -25 4 -46 14 -52 25 -5 10 -28 27 -50 38 -40 19 -40 19 -40 0 0 -15
-5 -19 -20 -15 -11 3 -20 1 -20 -4 0 -5 -7 -9 -15 -9 -19 0 -20 29 -1 36 8 3
12 12 10 19 -4 11 -14 10 -47 -6 -49 -22 -83 -24 -94 -6 -4 6 -21 21 -37 33
-25 17 -30 28 -33 72 -1 28 2 54 7 57 21 13 8 35 -37 61 -27 15 -59 41 -73 57
-18 20 -37 30 -68 34 -36 5 -43 9 -39 24 4 15 0 19 -19 19 -42 0 -96 28 -92
47 2 10 13 19 26 21 14 2 22 10 22 23 0 20 -15 26 -25 9 -3 -5 -15 -15 -26
-20 -15 -9 -21 -7 -26 7 -4 10 -17 32 -29 48 -13 17 -28 53 -34 80 -6 28 -21
70 -32 95 -13 26 -23 68 -24 103 -1 32 -7 64 -12 70 -18 22 -42 76 -42 92 0 9
9 19 20 22 28 8 27 56 -2 76 l-23 15 23 24 c12 13 22 28 22 32 0 5 12 20 26
33 28 25 54 25 54 -2 0 -8 9 -15 21 -15 17 0 19 4 12 23 -4 12 -7 37 -6 55 1
17 3 57 5 88 2 46 5 54 19 51 11 -3 21 4 27 18 8 18 6 27 -14 51 l-24 29 6
-26 c3 -16 0 -30 -10 -38 -18 -15 -36 -7 -36 17 0 10 -9 23 -20 30 -22 14 -27
38 -7 45 6 2 -3 11 -21 21 l-33 17 7 -25 c8 -32 -20 -46 -43 -23 -15 15 -18
15 -29 -1 -12 -16 -14 -16 -29 -1 -23 23 -11 92 15 84 13 -4 19 2 24 25 8 43
-17 90 -47 87 -23 -2 -24 2 -12 41 5 17 2 22 -10 22 -13 0 -16 6 -12 21 4 13
0 22 -11 26 -25 10 -31 24 -21 50 13 35 11 53 -6 53 -8 0 -22 17 -30 38 -21
48 -60 89 -99 102 -28 9 -34 18 -54 83 -12 39 -25 86 -28 104 -6 28 -9 31 -33
27 -17 -4 -42 2 -69 16 -56 30 -65 61 -60 216 2 68 0 124 -4 124 -4 0 -8 -9
-8 -20 0 -11 -7 -20 -15 -20 -8 0 -15 9 -15 19 0 11 -4 22 -10 26 -14 8 -1 33
21 40 23 8 25 42 3 66 -8 9 -19 43 -24 75 -5 33 -11 66 -12 74 -1 8 5 31 14
50 14 31 27 84 45 183 3 16 0 40 -8 53 -11 21 -11 27 0 33 10 6 11 14 3 26 -8
16 -11 14 -25 -16 -8 -19 -18 -44 -22 -56 -6 -23 -37 -39 -55 -28 -5 3 -8 45
-6 98 3 76 6 93 20 95 9 2 16 13 16 26 0 12 7 32 16 44 14 21 14 22 -6 22 -13
0 -24 -9 -30 -24 -5 -14 -18 -30 -29 -36 -12 -6 -28 -24 -36 -41 -9 -16 -75
-91 -147 -167 -102 -106 -137 -151 -159 -198 -15 -34 -37 -69 -50 -78 -26 -18
-89 -22 -89 -6 0 6 -11 16 -25 22 -34 15 -32 38 11 149 20 54 33 103 30 115
-4 13 7 49 25 89 16 37 27 70 24 74 -13 12 -56 -52 -73 -110 -16 -57 -42 -81
-42 -39 0 11 -7 20 -15 20 -22 0 -18 28 14 95 36 76 46 115 29 115 -7 0 -31
-12 -53 -25 -47 -29 -65 -31 -66 -7 0 9 -16 30 -35 45 l-34 29 0 -37z m555
-305 c-5 -8 -11 -8 -17 -2 -6 6 -7 16 -3 22 5 8 11 8 17 2 6 -6 7 -16 3 -22z
m-370 -13 c0 -26 -20 -25 -23 2 -3 16 1 22 10 19 7 -3 13 -12 13 -21z m583
-76 c-2 -15 -10 -27 -20 -29 -14 -3 -18 4 -18 31 0 18 3 37 7 40 12 13 34 -16
31 -42z m27 -300 c3 -5 1 -12 -5 -16 -5 -3 -10 1 -10 9 0 18 6 21 15 7z m-5
-166 c0 -8 -4 -16 -9 -19 -12 -8 -34 21 -27 33 9 14 36 2 36 -14z m6 -196 c7
-12 -15 -31 -28 -23 -4 3 -8 12 -8 20 0 17 26 19 36 3z m-367 -860 c35 -12 51
-41 51 -90 0 -17 5 -40 12 -52 7 -12 19 -58 28 -102 l16 -80 61 0 c43 0 66 -5
79 -17 11 -9 39 -26 64 -38 137 -64 134 -60 179 -240 53 -208 51 -268 -9 -311
-21 -15 -38 -17 -108 -12 -46 3 -89 11 -96 18 -6 7 -28 18 -49 24 -69 23 -117
118 -157 311 -29 138 -58 238 -80 275 -20 33 -70 219 -70 260 0 33 17 65 34
65 7 0 28 -5 45 -11z m415 -164 c18 -18 31 -94 21 -124 -14 -46 -53 -9 -69 66
-7 32 6 73 24 73 5 0 15 -7 24 -15z m616 -30 c0 -8 -7 -15 -15 -15 -8 0 -15 7
-15 15 0 8 7 15 15 15 8 0 15 -7 15 -15z m-70 -41 c0 -8 -5 -12 -10 -9 -6 4
-8 11 -5 16 9 14 15 11 15 -7z m432 -980 c19 -7 34 -41 23 -52 -4 -4 -15 3
-25 16 -10 12 -23 22 -29 22 -6 0 -11 7 -11 16 0 9 5 13 13 10 6 -3 20 -9 29
-12z m2918 -83 c0 -6 -4 -13 -10 -16 -5 -3 -10 1 -10 9 0 9 5 16 10 16 6 0 10
-4 10 -9z m-2904 -142 c8 -14 -18 -31 -30 -19 -9 9 0 30 14 30 5 0 12 -5 16
-11z m2564 -64 c0 -8 -7 -15 -15 -15 -8 0 -15 7 -15 15 0 8 7 15 15 15 8 0 15
-7 15 -15z m-2582 -93 c2 -7 -3 -12 -12 -12 -9 0 -16 7 -16 16 0 17 22 14 28
-4z m1482 -767 c0 -8 -4 -15 -9 -15 -13 0 -22 16 -14 24 11 11 23 6 23 -9z
m-142 -109 c3 -15 1 -16 -17 -6 -12 6 -19 16 -15 21 9 15 28 5 32 -15z m-140
-78 c13 -13 16 -48 4 -48 -14 0 -32 23 -32 42 0 21 11 23 28 6z m-280 -236 c3
-9 -2 -13 -14 -10 -9 1 -19 9 -22 16 -3 9 2 13 14 10 9 -1 19 -9 22 -16z m-50
-683 c-2 -6 -8 -10 -13 -10 -5 0 -11 4 -13 10 -2 6 4 11 13 11 9 0 15 -5 13
-11z m806 -614 c14 -15 20 -47 32 -198 7 -90 -3 -111 -45 -100 -46 11 -101 43
-101 59 0 18 44 61 72 70 19 6 20 12 13 95 -7 91 -2 104 29 74z m-214 -352 c0
-10 -20 -52 -45 -93 -55 -93 -57 -110 -11 -110 40 0 65 -24 50 -48 -13 -22
-88 -59 -136 -67 -31 -6 -41 -3 -63 19 -20 20 -24 32 -19 49 9 29 120 191 160
234 34 36 64 43 64 16z m3828 -96 c2 -11 -3 -17 -16 -17 -24 0 -32 8 -25 26 7
20 37 13 41 -9z m127 -46 c7 -12 -12 -24 -25 -16 -11 7 -4 25 10 25 5 0 11 -4
15 -9z m1283 -103 c-6 -18 -28 -21 -28 -4 0 9 7 16 16 16 9 0 14 -5 12 -12z
m-868 -163 c0 -8 6 -15 14 -15 20 0 31 -19 18 -32 -7 -7 -15 -4 -24 11 -7 11
-21 21 -30 21 -10 0 -18 7 -18 15 0 8 9 15 20 15 11 0 20 -7 20 -15z m-4140
-1931 c0 -8 -5 -12 -10 -9 -6 4 -8 11 -5 16 9 14 15 11 15 -7z m120 -51 c0
-20 -24 -11 -28 10 -2 12 1 15 12 11 9 -3 16 -13 16 -21z m-140 -8 c0 -8 -6
-15 -14 -15 -17 0 -28 14 -19 24 12 12 33 6 33 -9z m80 -35 c0 -5 -4 -10 -10
-10 -5 0 -10 5 -10 10 0 6 5 10 10 10 6 0 10 -4 10 -10z m118 -58 c2 -7 -3
-12 -12 -12 -9 0 -16 7 -16 16 0 17 22 14 28 -4z m-3 -83 c0 -7 -8 -15 -17
-17 -18 -3 -25 18 -11 32 10 10 28 1 28 -15z"/>
<path d="M6770 10002 c0 -20 36 -72 50 -72 13 0 -16 72 -34 82 -12 7 -16 5
-16 -10z"/>
<path d="M6195 9899 c-76 -26 -350 -158 -342 -165 3 -3 47 1 99 10 51 8 170
20 263 26 94 5 208 15 255 21 60 7 105 7 150 0 36 -6 71 -11 79 -11 52 0 -129
97 -234 126 -74 20 -198 17 -270 -7z"/>
<path d="M6740 9892 c7 -13 10 -34 7 -45 -3 -16 6 -31 36 -57 l40 -35 -31 60
c-30 60 -77 129 -52 77z"/>
<path d="M7221 9875 c-18 -8 -54 -15 -80 -15 -41 -1 -44 -2 -28 -15 29 -21
157 7 157 34 0 14 -8 13 -49 -4z"/>
<path d="M6530 9539 c-25 -4 -108 -8 -184 -8 -159 -1 -274 -17 -256 -35 7 -7
70 -11 193 -10 162 0 189 2 241 22 98 36 100 48 6 31z"/>
<path d="M7127 9527 c-3 -9 16 -28 50 -50 77 -51 86 -46 23 13 -57 54 -65 57
-73 37z"/>
<path d="M4138 9335 c-4 -4 -42 -11 -85 -15 -119 -12 -171 -45 -95 -61 17 -3
47 -16 68 -28 40 -24 69 -23 169 5 28 7 85 20 127 28 42 8 91 22 110 32 30 16
31 17 11 25 -29 10 -296 23 -305 14z"/>
<path d="M5625 9162 c-52 -20 -50 -18 -37 -46 6 -13 43 -45 83 -72 40 -26 105
-80 145 -120 62 -62 72 -78 78 -118 6 -40 12 -49 44 -65 41 -21 115 -91 209
-196 148 -167 338 -396 391 -472 31 -45 60 -82 65 -82 12 -1 7 33 -8 53 -8 11
-15 34 -15 51 0 18 -5 47 -11 65 -14 38 -3 50 38 42 18 -3 24 -1 19 7 -4 6
-20 11 -35 11 -36 0 -54 21 -46 53 6 22 1 30 -34 53 -23 14 -50 42 -62 60 -11
19 -32 37 -46 40 -20 5 -24 12 -20 30 5 27 -15 49 -38 41 -18 -8 -43 17 -52
51 -6 26 -145 172 -163 172 -6 0 -36 25 -67 55 -31 30 -60 55 -63 55 -3 0 -19
18 -36 39 -16 22 -39 43 -52 46 -15 3 -29 20 -39 43 -26 64 -174 224 -203 221
-3 -1 -23 -8 -45 -17z"/>
<path d="M4815 9061 c-11 -13 -36 -41 -55 -63 -19 -22 -39 -54 -43 -71 -4 -18
-10 -41 -13 -52 -3 -11 1 -28 8 -38 13 -17 16 -15 45 30 44 70 85 167 81 194
l-3 24 -20 -24z"/>
<path d="M5500 8883 c-30 -8 -71 -17 -91 -22 -20 -4 -45 -17 -57 -29 -12 -12
-25 -22 -29 -22 -5 0 -56 -5 -115 -10 -101 -10 -110 -9 -186 15 -43 14 -96 36
-116 50 -20 14 -41 25 -45 25 -10 0 -51 -92 -51 -115 0 -23 -24 -67 -50 -90
-13 -11 -29 -35 -37 -53 -19 -46 -33 -31 -34 36 l-1 57 -24 -50 c-13 -27 -24
-62 -24 -78 0 -24 2 -26 19 -16 40 26 70 -13 100 -134 l19 -72 99 -5 100 -5
94 -89 c88 -83 137 -116 174 -116 23 0 91 66 155 150 72 94 139 134 251 150
97 14 167 37 179 60 16 30 41 163 35 187 -4 16 -17 25 -48 33 -78 20 -142 57
-169 97 -34 52 -75 64 -148 46z"/>
<path d="M4582 8538 c-4 -17 -14 -34 -22 -38 -67 -31 -75 -37 -81 -67 l-6 -32
26 18 c42 30 121 119 121 136 0 28 -29 15 -38 -17z"/>
<path d="M7428 8407 c-12 -29 -10 -63 3 -50 6 6 9 23 7 39 -2 24 -4 26 -10 11z"/>
<path d="M4434 8385 c-10 -8 -14 -15 -8 -15 6 0 17 7 24 15 16 19 9 19 -16 0z"/>
<path d="M3781 8132 l-24 -19 23 -6 c15 -4 28 -1 35 10 13 17 16 15 50 -32 14
-19 15 -17 13 20 -3 38 -5 40 -38 43 -22 1 -44 -5 -59 -16z"/>
<path d="M4260 8105 c-13 -14 -29 -25 -37 -25 -7 0 -13 -7 -13 -15 0 -24 -27
-29 -55 -11 -30 20 -52 12 -33 -11 11 -13 9 -18 -10 -31 -23 -15 -29 -41 -12
-58 8 -8 6 -15 -4 -23 -17 -15 -56 1 -56 23 0 8 -6 19 -14 25 -8 7 -12 21 -9
31 9 34 -7 22 -23 -16 -9 -20 -24 -48 -34 -63 -11 -14 -22 -39 -25 -56 -5 -29
-5 -29 11 5 17 38 52 80 66 80 5 0 17 -20 28 -45 11 -25 21 -45 24 -45 2 0 16
7 32 14 15 8 31 13 36 10 12 -8 10 -32 -4 -37 -7 -3 3 -3 22 0 45 7 47 10 28
30 -15 14 -13 19 23 57 37 38 39 43 33 83 -5 34 -3 43 8 43 8 0 24 14 36 30
27 36 15 40 -18 5z m-57 -102 c9 -9 -13 -34 -24 -27 -14 8 -11 34 4 34 8 0 17
-3 20 -7z m-39 -44 c-3 -5 -14 -9 -25 -9 -21 0 -26 26 -6 33 15 5 39 -12 31
-24z"/>
<path d="M7760 8085 c0 -8 9 -15 20 -15 13 0 18 5 14 15 -4 8 -12 15 -20 15
-8 0 -14 -7 -14 -15z"/>
<path d="M7842 8013 c2 -27 8 -39 21 -41 25 -5 39 38 19 61 -26 30 -44 21 -40
-20z"/>
<path d="M5582 7944 c-10 -19 -94 -47 -182 -60 -25 -3 -57 -13 -72 -20 -22
-11 -32 -12 -47 -2 -15 9 -40 6 -133 -17 -101 -25 -172 -33 -233 -26 -29 4
-142 -31 -204 -63 -51 -26 -56 -27 -85 -14 -18 9 -47 13 -68 10 -36 -4 -37 -5
-22 -28 20 -29 13 -40 -30 -48 -34 -6 -58 -27 -69 -58 -3 -9 -24 -22 -46 -28
-42 -11 -52 -29 -27 -49 7 -6 16 -24 19 -39 3 -15 13 -36 21 -47 12 -17 18
-18 33 -7 10 6 28 17 41 22 13 6 60 32 105 59 266 159 338 200 387 220 156 67
335 95 600 96 193 0 196 0 350 -39 246 -61 412 -95 458 -96 37 0 42 3 42 23 0
27 -55 82 -90 90 -14 3 -58 13 -99 22 -41 9 -87 25 -103 36 -45 32 -91 35
-128 9 -29 -21 -36 -22 -83 -11 -29 6 -93 15 -143 21 -89 10 -162 32 -175 52
-4 6 -11 3 -17 -8z m-654 -151 c-2 -10 -12 -18 -23 -18 -11 0 -21 8 -23 18 -3
13 3 17 23 17 20 0 26 -4 23 -17z"/>
<path d="M5915 7610 c3 -5 13 -10 21 -10 8 0 12 5 9 10 -3 6 -13 10 -21 10 -8
0 -12 -4 -9 -10z"/>
<path d="M5765 7603 c-22 -2 -89 -12 -150 -23 -209 -36 -292 -45 -320 -32 -14
7 -71 12 -128 12 -56 0 -108 4 -116 9 -10 6 -25 4 -44 -6 -18 -9 -42 -13 -61
-9 -21 4 -39 1 -51 -9 -11 -8 -37 -15 -58 -15 -48 0 -89 -21 -106 -54 -13 -23
-12 -28 2 -44 10 -10 17 -24 17 -31 0 -19 88 -55 104 -42 14 12 26 5 26 -16 0
-7 -7 -13 -15 -13 -9 0 -12 -6 -9 -15 4 -8 16 -15 28 -15 12 0 33 -14 47 -32
24 -29 29 -31 53 -20 15 7 23 17 20 25 -5 14 35 47 56 47 17 0 11 -25 -10 -43
-12 -10 -18 -22 -15 -27 6 -9 9 -8 85 27 73 35 317 77 495 86 31 1 50 7 51 15
1 6 2 17 3 22 0 6 10 10 21 10 11 0 24 8 27 17 12 31 43 53 76 53 23 1 44 12
74 39 l42 38 -28 21 c-34 24 -60 30 -116 25z m-779 -284 c7 -11 -12 -29 -31
-29 -5 0 -17 5 -25 10 -13 9 -13 11 0 20 20 13 47 13 56 -1z"/>
<path d="M3706 5237 c-49 -76 -108 -195 -151 -302 -20 -49 -48 -110 -63 -135
-15 -25 -30 -53 -34 -62 -4 -10 -15 -18 -25 -18 -18 0 -73 -60 -73 -79 0 -6 7
-11 15 -11 8 0 15 -7 15 -15 0 -14 -11 -19 -37 -16 -6 1 -26 -19 -43 -44 -17
-25 -37 -45 -45 -45 -8 0 -22 -14 -30 -30 -9 -17 -38 -64 -66 -105 -28 -41
-54 -87 -58 -102 -6 -21 -13 -27 -29 -26 -12 2 -22 -1 -22 -5 0 -5 -14 -30
-31 -55 -24 -37 -29 -53 -24 -77 6 -27 4 -30 -17 -30 -13 0 -30 4 -37 9 -11 7
-22 2 -38 -15 -13 -14 -23 -29 -23 -34 0 -6 -9 -15 -20 -22 -11 -7 -20 -21
-20 -30 0 -41 -76 -49 -96 -10 l-11 23 -32 -38 c-17 -21 -29 -44 -26 -51 2 -7
-6 -17 -19 -22 -14 -5 -28 -19 -31 -32 -4 -12 -18 -31 -31 -41 -15 -11 -24
-29 -24 -45 0 -38 -14 -55 -38 -48 -22 8 -91 -31 -92 -52 0 -9 -5 -10 -19 -2
-11 5 -28 10 -38 9 -14 0 -14 -2 5 -9 12 -5 25 -16 28 -25 14 -36 -50 -62 -76
-30 -14 17 -36 20 -45 5 -7 -12 13 -52 31 -63 18 -10 18 -41 0 -56 -11 -9 -17
-8 -28 7 -7 11 -28 23 -46 26 -30 7 -32 6 -32 -18 0 -17 6 -26 15 -26 9 0 18
-7 21 -15 7 -17 -22 -97 -39 -107 -9 -5 -7 -11 5 -20 16 -12 22 -29 19 -55 -1
-7 -37 -14 -98 -18 -69 -5 -107 -13 -129 -26 -38 -23 -77 -24 -94 -4 -16 20
-46 19 -54 -1 -7 -18 -26 -9 -26 13 0 8 -11 24 -25 35 -34 27 -31 50 10 72 19
11 35 23 35 28 0 11 -28 10 -35 -2 -12 -19 -58 -10 -106 22 -54 35 -53 33 -38
77 13 38 42 39 47 1 4 -27 19 -50 33 -50 5 0 2 11 -7 26 -23 34 -6 54 30 35
34 -19 70 1 59 32 -13 39 -9 92 7 92 8 0 16 -9 18 -20 7 -45 12 -48 32 -23 14
19 18 34 13 62 -5 34 7 50 22 26 3 -5 13 -10 21 -10 21 0 17 34 -6 55 -11 10
-20 31 -20 46 0 15 -5 31 -11 35 -9 5 -10 -3 -5 -28 9 -51 -7 -88 -39 -88 -26
0 -33 18 -14 37 8 8 8 13 0 17 -16 11 -13 46 4 46 19 0 19 14 0 30 -17 14 -17
15 -32 -22 -10 -21 -9 -29 3 -38 20 -17 18 -37 -5 -50 -32 -17 -59 -12 -67 12
-6 21 -7 21 -21 -5 -8 -16 -22 -27 -35 -27 -13 0 -55 -34 -113 -91 -87 -85
-143 -129 -165 -129 -36 0 36 107 145 215 28 28 61 65 73 83 21 29 22 32 5 32
-10 0 -24 9 -31 21 -13 21 -13 21 -37 -6 -20 -21 -28 -24 -44 -15 -31 16 -58
12 -64 -10 -7 -29 -45 -26 -59 4 -15 35 -4 58 27 54 13 -2 24 2 25 7 0 6 -20
11 -45 13 -25 2 -45 7 -45 13 0 14 -26 11 -40 -6 -17 -21 -36 -19 -71 8 -19
13 -45 22 -67 22 -31 0 -38 4 -40 23 -4 28 -13 28 -62 0 -34 -20 -42 -21 -72
-10 -19 6 -43 12 -53 12 -10 0 -27 7 -36 16 -16 14 -23 15 -49 4 -16 -7 -41
-9 -56 -6 -20 5 -30 2 -41 -14 -11 -15 -25 -20 -63 -20 -27 0 -52 -4 -55 -10
-3 -5 -17 -10 -31 -10 -15 0 -24 -6 -24 -15 0 -20 -20 -19 -35 2 -9 12 -25 17
-51 15 -22 -1 -49 4 -60 9 -18 9 -30 6 -66 -15 -34 -20 -58 -26 -101 -26 -31
0 -59 -5 -62 -11 -4 -5 -17 -9 -28 -8 -12 2 -35 -4 -52 -13 -16 -9 -49 -19
-71 -23 -80 -13 -81 -19 -93 -290 -7 -145 -11 -889 -11 -1873 l0 -1633 1738 5
c1614 4 1888 8 1908 29 4 4 0 20 -9 36 -50 86 -93 1073 -107 2511 -7 727 -13
960 -30 1240 -22 349 -22 472 -1 493 9 9 16 6 31 -13 l18 -24 6 34 c3 19 15
96 27 170 45 298 97 557 143 715 14 49 24 90 21 93 -2 2 -20 -21 -39 -51z
m-976 -1312 c0 -8 -7 -15 -15 -15 -16 0 -20 12 -8 23 11 12 23 8 23 -8z m-270
-405 c0 -6 -12 -16 -27 -23 -16 -6 -32 -17 -36 -24 -11 -18 -27 -16 -27 2 0 8
7 15 15 15 8 0 15 9 15 20 0 16 7 20 30 20 17 0 30 -5 30 -10z m-240 -800 c0
-14 -20 -22 -37 -16 -12 5 -13 9 -3 21 11 14 40 10 40 -5z m-1055 -60 c11 -18
-41 -57 -84 -65 -73 -12 -83 23 -13 45 20 7 41 16 47 21 12 12 42 11 50 -1z
m2083 -2282 c13 -11 17 -58 4 -58 -4 0 -13 5 -20 12 -9 9 -28 8 -83 -1 -116
-21 -124 22 -9 53 55 14 84 13 108 -6z m-22 -170 c10 -16 -25 -38 -63 -38 -26
0 -33 4 -33 19 0 11 6 22 13 24 23 10 76 7 83 -5z"/>
<path d="M4470 4930 c0 -5 5 -10 11 -10 5 0 7 5 4 10 -3 6 -8 10 -11 10 -2 0
-4 -4 -4 -10z"/>
<path d="M2007 3610 c-3 -11 -1 -23 4 -26 5 -3 9 6 9 20 0 31 -6 34 -13 6z"/>
<path d="M1921 3541 c-8 -5 -10 -14 -6 -21 6 -9 10 -8 17 4 12 21 7 28 -11 17z"/>
<path d="M1990 3525 c0 -8 2 -15 4 -15 2 0 6 7 10 15 3 8 1 15 -4 15 -6 0 -10
-7 -10 -15z"/>
<path d="M2140 3484 c0 -16 -3 -40 -7 -52 -6 -24 -6 -24 26 -8 17 9 36 14 41
11 6 -3 10 3 10 14 0 12 -5 21 -12 21 -6 0 -22 10 -35 22 l-23 21 0 -29z"/>
<path d="M1935 3410 c-8 -13 -1 -24 14 -19 6 3 7 10 2 18 -6 10 -10 10 -16 1z"/>
<path d="M2006 3348 c-22 -31 -20 -42 7 -33 12 4 37 10 56 13 19 4 36 13 39
21 3 10 -3 12 -26 6 -18 -3 -33 -2 -37 4 -10 17 -22 13 -39 -11z"/>
<path d="M2166 3354 c-4 -9 -4 -19 -1 -22 7 -8 35 19 29 29 -8 14 -21 11 -28
-7z"/>
<path d="M6740 3355 c0 -8 106 -55 125 -55 8 0 15 4 15 9 0 16 -24 29 -65 36
-22 4 -48 9 -57 12 -10 2 -18 2 -18 -2z"/>
<path d="M5655 1260 c3 -5 8 -10 11 -10 2 0 4 5 4 10 0 6 -5 10 -11 10 -5 0
-7 -4 -4 -10z"/>
<path d="M6741 934 c0 -11 3 -14 6 -6 3 7 2 16 -1 19 -3 4 -6 -2 -5 -13z"/>
<path d="M6756 840 c7 -91 22 -168 35 -176 11 -6 10 5 -21 156 l-19 95 5 -75z"/>
<path d="M6052 794 c1 -9 9 -19 16 -22 9 -3 13 2 10 14 -1 9 -9 19 -16 22 -9
3 -13 -2 -10 -14z"/>
<path d="M6796 577 c1 -28 8 -72 14 -97 7 -25 12 -61 12 -81 -1 -20 7 -58 18
-85 26 -66 25 -40 -6 144 -27 165 -41 207 -38 119z"/>
<path d="M6861 200 c0 -25 4 -52 9 -60 7 -11 9 -8 9 15 -1 17 -5 44 -9 60 -7
27 -8 26 -9 -15z"/>
<path d="M6881 63 c-1 -23 4 -45 9 -48 12 -7 12 29 0 65 -7 21 -8 19 -9 -17z"/>
</g>
</svg>
